<svg xmlns="http://www.w3.org/2000/svg" xmlns:xlink="http://www.w3.org/1999/xlink" viewBox="0 0 360 250" xmlns:v="https://vecta.io/nano"><path d="M-6.5 0h373v250h-373z" fill="#27292d"/><g fill="url(#G)"><path d="M96.5,36h168c3.3,0,6,2.7,6,6l0,0c0,3.3-2.7,6-6,6h-168c-3.3,0-6-2.7-6-6l0,0C90.5,38.7,93.2,36,96.5,36z"/><path d="M66.5,64h228c3.3,0,6,2.7,6,6l0,0c0,3.3-2.7,6-6,6h-228c-3.3,0-6-2.7-6-6l0,0C60.5,66.7,63.2,64,66.5,64z"/><path d="M120.5 171h120v36h-120z"/></g><defs><path id="A" d="M96.5,36h168c3.3,0,6,2.7,6,6l0,0c0,3.3-2.7,6-6,6h-168c-3.3,0-6-2.7-6-6l0,0C90.5,38.7,93.2,36,96.5,36z"/><path id="B" d="M66.5,64h228c3.3,0,6,2.7,6,6l0,0c0,3.3-2.7,6-6,6h-228c-3.3,0-6-2.7-6-6l0,0C60.5,66.7,63.2,64,66.5,64z"/><path id="C" d="M120.5 171h120v36h-120z"/></defs><clipPath id="D"><use xlink:href="#A"/></clipPath><clipPath id="E" clip-path="url(#D)"><use xlink:href="#B"/></clipPath><clipPath id="F" clip-path="url(#E)"><use xlink:href="#C"/></clipPath><g clip-path="url(#F)"><path d="M.5 8h360v233H.5z" fill="url(#G)"/></g><linearGradient id="G"><stop offset="0%" stop-color="#383c43"><animate attributeName="offset" values="-2; 1" dur="2" repeatCount="indefinite"/></stop><stop offset="50%" stop-color="#53575e"><animate attributeName="offset" values="-1.5; 1.5" dur="2" repeatCount="indefinite"/></stop><stop offset="100%" stop-color="#383c43"><animate attributeName="offset" values="-1; 2" dur="2" repeatCount="indefinite"/></stop></linearGradient></svg>